<svg width="126.954" height="90.556" xmlns="http://www.w3.org/2000/svg" xmlns:xlink="http://www.w3.org/1999/xlink" xml:space="preserve" fill-rule="evenodd" clip-rule="evenodd" stroke-linecap="round" stroke-miterlimit="10" viewBox="0 19.566 126.954 90.556"><g transform="matrix(1.04244,0,0,1.04244,-5.38775,-10.328)"><path d="M116.288,82.062C116.563,88.375 120.747,90.434 122.76,93.781C124.325,96.382 125.752,97.497 126.386,100.44C126.895,102.8 127.514,104.705 125.998,106.911C125.182,108.098 123.923,108.904 121.199,109.393C115.865,110.351 108.319,108.585 106.003,107.856C103.208,106.975 97.495,103.537 91.557,107.199C89.858,108.247 90.268,109.179 90.83,110.913C92.322,115.515 85.238,116.202 82.323,115.064C76.19,112.67 70.335,110.492 63.791,110.869C60.688,111.048 55.02,112.282 51.987,112.875C47.963,113.661 43.177,114.174 39.08,113.806C36.924,113.612 35.392,112.173 33.636,111.095C32.149,110.184 30.522,109.653 28.793,109.448C27.102,109.248 25.286,110.115 23.656,110.457C18.975,111.438 12.113,112.885 7.836,109.984C7.197,109.551 6.639,108.96 6.196,108.332C5.849,107.841 5.489,107.297 5.283,106.728C4.304,104.013 9.889,103.145 10.116,99.933C10.403,95.858 6.171,95.389 5.674,93.616C5.503,93.007 5.489,92.325 5.553,91.696C6.005,87.306 11.221,86.595 11.497,82.817" fill="#fcc21b"/></g><g transform="matrix(1,0,0,1,0,-1.8)"><g transform="matrix(0.860529,0,0,0.785977,6.21629,12.5383)"><path d="M66.541,11.715C4.573,4.58 0,78.5 0,92.33C0,106.16 28.56,117.36 63.79,117.36C99.03,117.36 127.58,106.15 127.58,92.33C127.58,78.5 128.861,18.89 66.541,11.715Z" fill="#fcc21b" fill-rule="nonzero"/></g><g transform="matrix(0.858607,0.0574837,-0.0574837,0.858607,9.60276,4.29839)"><path d="M86.32,66.47C90.8,66.46 94.43,62.11 94.42,56.76C94.41,51.39 90.76,47.06 86.28,47.07C81.79,47.08 78.15,51.43 78.16,56.8C78.18,62.15 81.83,66.48 86.32,66.47Z" fill="#2f2f2f"/></g><g transform="matrix(0.858607,0.0574837,-0.0574837,0.858607,9.60276,0.207378)"><path d="M42.21,66.47C37.72,66.51 34.04,62.2 33.99,56.85C33.94,51.48 37.54,47.1 42.03,47.06C46.51,47.02 50.2,51.33 50.25,56.7C50.3,62.06 46.7,66.43 42.21,66.47Z" fill="#2f2f2f"/></g><g transform="matrix(0.84863,0.142605,-0.142605,0.84863,21.0935,-0.899181)"><path d="M36.19,81.17C48.229,91.802 57.449,90.946 78.214,85.52" fill="none" stroke="#2f2f2f" stroke-width="6"/></g></g></svg>